<svg width="576" height="200" viewBox="0 0 576 200" fill="none" xmlns="http://www.w3.org/2000/svg">
<path d="M504.18 180C500.801 180 498.062 177.261 498.062 173.883V107.819C498.062 104.44 500.801 101.701 504.18 101.701V101.701C507.559 101.701 510.297 104.44 510.297 107.819V124.438C510.297 130.259 515.017 134.978 520.838 134.978H527.81C530.874 134.978 533.786 133.645 535.788 131.327L558.491 105.036C560.319 102.918 562.978 101.701 565.776 101.701H573.817C574.692 101.701 575.401 102.411 575.401 103.286V103.286C575.401 103.667 575.264 104.035 575.015 104.323L549.388 133.942C545.958 137.907 545.963 143.79 549.4 147.749L575.126 177.378C575.376 177.666 575.514 178.035 575.514 178.417V178.417C575.514 179.291 574.805 180 573.93 180H565.811C562.991 180 560.311 178.773 558.468 176.639L535.788 150.374C533.786 148.056 530.874 146.723 527.81 146.723H520.838C515.017 146.723 510.297 151.442 510.297 157.263V173.883C510.297 177.261 507.559 180 504.18 180V180Z" fill="white"/>
<path d="M420.245 180C417.551 180 415.081 179.384 412.836 178.151C410.666 176.846 408.908 175.143 407.561 173.04C406.288 170.865 405.652 168.473 405.652 165.863V115.838C405.652 113.229 406.288 110.872 407.561 108.77C408.908 106.595 410.666 104.891 412.836 103.659C415.081 102.354 417.551 101.701 420.245 101.701H480.374C483.617 101.701 486.246 104.33 486.246 107.574V107.574C486.246 110.817 483.617 113.446 480.374 113.446H421.928C420.731 113.446 419.721 113.845 418.898 114.642C418.149 115.367 417.775 116.31 417.775 117.47V164.232C417.775 165.391 418.149 166.37 418.898 167.168C419.721 167.893 420.731 168.255 421.928 168.255H480.374C483.617 168.255 486.246 170.884 486.246 174.128V174.128C486.246 177.371 483.617 180 480.374 180H420.245Z" fill="white"/>
<path d="M222.517 180C219.17 180 216.456 177.286 216.456 173.939V107.763C216.456 104.415 219.17 101.701 222.517 101.701V101.701C225.865 101.701 228.579 104.415 228.579 107.763V124.438C228.579 130.259 233.298 134.978 239.119 134.978H276.407C282.229 134.978 286.948 130.259 286.948 124.438V107.819C286.948 104.44 289.687 101.701 293.065 101.701V101.701C296.444 101.701 299.183 104.44 299.183 107.819V173.883C299.183 177.261 296.444 180 293.065 180V180C289.687 180 286.948 177.261 286.948 173.883V157.263C286.948 151.442 282.229 146.723 276.407 146.723H239.119C233.298 146.723 228.579 151.442 228.579 157.263V173.939C228.579 177.286 225.865 180 222.517 180V180Z" fill="white"/>
<path fill-rule="evenodd" clip-rule="evenodd" d="M312.045 115.838V173.939C312.045 177.286 314.759 180 318.106 180V180C321.454 180 324.168 177.286 324.168 173.939V172.67C324.168 170.985 324.795 169.356 325.974 168.152V168.152C328.52 165.553 332.392 161.889 337.601 157.75C344.245 152.473 353.048 146.437 364.034 140.85C367.129 139.277 370.396 137.74 373.837 136.265C377.09 134.871 380.628 137.312 380.628 140.85V140.85V173.882C380.628 177.261 383.367 180 386.746 180V180C390.125 180 392.863 177.261 392.863 173.882V115.838C392.863 113.228 392.19 110.872 390.843 108.77C389.571 106.595 387.812 104.891 385.567 103.659C383.322 102.354 380.853 101.701 378.159 101.701H326.637C323.943 101.701 321.474 102.354 319.229 103.659C317.059 104.891 315.3 106.595 313.953 108.77C312.681 110.872 312.045 113.228 312.045 115.838ZM376.063 122.683C378.783 121.652 380.628 119.074 380.628 116.165V116.165C380.628 115.44 380.366 114.823 379.843 114.316C379.319 113.736 378.683 113.446 377.934 113.446H326.974C326.226 113.446 325.552 113.736 324.953 114.316C324.43 114.823 324.168 115.44 324.168 116.165V140.85V145.995C324.168 148.921 327.646 150.514 329.937 148.694V148.694C333.084 146.195 336.669 143.544 340.697 140.85C350.078 134.576 361.856 128.067 376.063 122.683Z" fill="white"/>
<path d="M517.132 85.629C514.388 85.629 512.164 83.4049 512.164 80.6613V24.9677C512.164 22.2241 514.388 20 517.132 20V20C519.875 20 522.1 22.2241 522.1 24.9677V37.352C522.1 43.1733 526.819 47.8923 532.64 47.8923H535.314C538.435 47.8923 541.396 46.5092 543.399 44.1154L561.245 22.7828C562.721 21.0191 564.902 20 567.202 20H573.631C574.369 20 574.967 20.5985 574.967 21.3368V21.3368C574.967 21.6509 574.857 21.9549 574.655 22.1956L554.675 46.0316C551.387 49.9538 551.392 55.6711 554.687 59.5876L574.745 83.4332C574.948 83.674 575.059 83.9785 575.059 84.2932V84.2932C575.059 85.0309 574.46 85.629 573.723 85.629H567.231C564.913 85.629 562.714 84.6018 561.227 82.824L543.399 61.5137C541.396 59.1199 538.435 57.7367 535.314 57.7367H532.64C526.819 57.7367 522.1 62.4557 522.1 68.277V80.6613C522.1 83.4049 519.875 85.629 517.132 85.629V85.629Z" fill="white"/>
<path d="M494.353 85.6289C492.002 85.6289 489.777 84.5643 488.303 82.7333L470.84 61.0472C468.202 57.7711 470.534 52.8991 474.74 52.8991V52.8991C476.252 52.8991 477.683 53.5823 478.634 54.7582L501.82 83.4355C502.014 83.6752 502.12 83.974 502.12 84.2822V84.2822C502.12 85.026 501.517 85.6289 500.773 85.6289H494.353ZM441.778 85.6289C439.059 85.6289 436.855 83.4252 436.855 80.7068V30.6314C436.855 24.8101 441.575 20.0911 447.396 20.0911H490.544C492.731 20.0911 494.737 20.638 496.56 21.7318C498.383 22.8256 499.811 24.284 500.844 26.1071C501.938 27.8693 502.484 29.8139 502.484 31.9407V50.3533C502.484 52.541 501.938 54.5463 500.844 56.3693C499.811 58.1316 498.383 59.5596 496.56 60.6534C494.737 61.6865 492.731 62.203 490.544 62.203L457.218 62.2723C451.406 62.2844 446.7 66.9999 446.7 72.8126V80.7068C446.7 83.4252 444.496 85.6289 441.778 85.6289V85.6289ZM448.979 52.2675H490.361C490.969 52.2675 491.486 52.0548 491.911 51.6295C492.336 51.2041 492.549 50.6876 492.549 50.0799V32.2142C492.549 31.6065 492.336 31.09 491.911 30.6646C491.486 30.1785 490.969 29.9354 490.361 29.9354H448.979C448.371 29.9354 447.824 30.1785 447.338 30.6646C446.913 31.09 446.7 31.6065 446.7 32.2142V50.0799C446.7 50.6876 446.913 51.2041 447.338 51.6295C447.824 52.0548 448.371 52.2675 448.979 52.2675Z" fill="white"/>
<path d="M474.523 65.6215C472.15 63.5569 470.661 62.9175 467.124 62.2504L472.352 62.062L474.523 65.6215Z" fill="white"/>
<path d="M485.689 63.489C485.392 62.8135 485.657 62.3448 486.397 62.2107L484.571 62.1574L485.689 63.489Z" fill="white"/>
<path fill-rule="evenodd" clip-rule="evenodd" d="M360.84 31.8497V80.7069C360.84 83.4253 363.044 85.629 365.762 85.629V85.629C368.48 85.629 370.684 83.4253 370.684 80.7069V79.453C370.684 78.0597 371.192 76.7098 372.151 75.699V75.699C374.218 73.5199 377.363 70.4489 381.593 66.9803C386.988 62.5566 394.137 57.4969 403.059 52.8145C405.526 51.5196 408.13 50.2534 410.869 49.0376C413.567 47.8404 416.533 49.8632 416.533 52.8145V52.8145V80.6613C416.533 83.4049 418.758 85.629 421.501 85.629V85.629C424.245 85.629 426.469 83.4049 426.469 80.6613V31.8497C426.469 29.6621 425.922 27.6871 424.828 25.9248C423.795 24.1018 422.367 22.6738 420.544 21.6407C418.721 20.5469 416.716 20 414.528 20H372.69C370.502 20 368.497 20.5469 366.674 21.6407C364.911 22.6738 363.483 24.1018 362.389 25.9248C361.356 27.6871 360.84 29.6621 360.84 31.8497ZM412.721 37.6285C414.996 36.7366 416.533 34.5664 416.533 32.1231V32.1231C416.533 31.5155 416.321 30.9989 415.895 30.5736C415.47 30.0874 414.953 29.8444 414.346 29.8444H372.963C372.355 29.8444 371.808 30.0874 371.322 30.5736C370.897 30.9989 370.684 31.5155 370.684 32.1231V52.8145V57.2423C370.684 59.6197 373.531 60.8967 375.369 59.3894V59.3894C377.924 57.2942 380.837 55.0725 384.108 52.8145C391.702 47.5717 401.232 42.1331 412.721 37.6285Z" fill="white"/>
<path d="M321.026 85.629C318.308 85.629 316.104 83.4253 316.104 80.7069V40.3846C316.104 34.5634 311.385 29.8444 305.564 29.8444H293.134C290.416 29.8444 288.212 27.6406 288.212 24.9222V24.9222C288.212 22.2037 290.416 20 293.134 20H348.919C351.637 20 353.841 22.2037 353.841 24.9222V24.9222C353.841 27.6406 351.637 29.8444 348.919 29.8444H336.489C330.668 29.8444 325.949 34.5634 325.949 40.3846V80.7069C325.949 83.4253 323.745 85.629 321.026 85.629V85.629Z" fill="white"/>
<path d="M227.85 85.629C225.723 85.629 223.748 85.1125 221.925 84.0795C220.102 82.9856 218.643 81.5576 217.55 79.7953C216.517 77.9723 216 75.967 216 73.7793V73.7793C216 71.665 217.714 69.951 219.828 69.951H222.289C224.253 69.951 225.844 71.5426 225.844 73.5059V73.5059C225.844 74.1136 226.057 74.6605 226.482 75.1466C226.969 75.572 227.515 75.7847 228.123 75.7847H269.506C270.114 75.7847 270.63 75.572 271.055 75.1466C271.481 74.6605 271.694 74.1136 271.694 73.5059V60.0155C271.694 59.347 271.481 58.8001 271.055 58.3748C270.63 57.9494 270.114 57.7367 269.506 57.7367H227.85C225.723 57.7367 223.748 57.2202 221.925 56.1871C220.102 55.0933 218.643 53.6653 217.55 51.903C216.517 50.08 216 48.0746 216 45.887V31.8497C216 29.6621 216.517 27.6871 217.55 25.9248C218.643 24.1018 220.102 22.6738 221.925 21.6407C223.748 20.5469 225.723 20 227.85 20H269.779C271.906 20 273.881 20.5469 275.704 21.6407C277.527 22.6738 278.955 24.1018 279.988 25.9248C281.082 27.6871 281.629 29.6621 281.629 31.8497V31.8497C281.629 33.964 279.915 35.678 277.801 35.678H275.248C273.285 35.678 271.694 34.0865 271.694 32.1231V32.1231C271.694 31.5155 271.481 30.9989 271.055 30.5736C270.63 30.0874 270.114 29.8444 269.506 29.8444H228.123C227.515 29.8444 226.969 30.0874 226.482 30.5736C226.057 30.9989 225.844 31.5155 225.844 32.1231V45.6136C225.844 46.282 226.057 46.8289 226.482 47.2543C226.969 47.6797 227.515 47.8923 228.123 47.8923H269.779C271.906 47.8923 273.881 48.4393 275.704 49.5331C277.527 50.5661 278.955 51.9942 279.988 53.8172C281.082 55.5794 281.629 57.5544 281.629 59.742V73.7793C281.629 75.967 281.082 77.9723 279.988 79.7953C278.955 81.5576 277.527 82.9856 275.704 84.0795C273.881 85.1125 271.906 85.629 269.779 85.629H227.85Z" fill="white"/>
<mask id="path-12-outside-1_2_675" maskUnits="userSpaceOnUse" x="78.2076" y="13.6596" width="106.066" height="106.066" fill="black">
<rect fill="white" x="78.2076" y="13.6596" width="106.066" height="106.066"/>
<path fill-rule="evenodd" clip-rule="evenodd" d="M90.9411 82.9775C90.3955 82.0008 90.4812 80.7995 91.1378 79.8937C95.8684 73.3688 101.649 66.5861 108.274 59.9606C127.863 40.3719 150.907 36.9009 158.923 36.2886C160.546 36.1646 161.838 37.4562 161.714 39.0801C161.102 47.0957 157.631 70.1398 138.042 89.7285C131.417 96.3539 124.634 102.134 118.109 106.865C117.204 107.521 116.002 107.607 115.026 107.061C110.285 104.413 105.634 100.921 101.357 96.6445C97.0806 92.368 93.5891 87.7177 90.9411 82.9775Z"/>
</mask>
<path fill-rule="evenodd" clip-rule="evenodd" d="M90.9411 82.9775C90.3955 82.0008 90.4812 80.7995 91.1378 79.8937C95.8684 73.3688 101.649 66.5861 108.274 59.9606C127.863 40.3719 150.907 36.9009 158.923 36.2886C160.546 36.1646 161.838 37.4562 161.714 39.0801C161.102 47.0957 157.631 70.1398 138.042 89.7285C131.417 96.3539 124.634 102.134 118.109 106.865C117.204 107.521 116.002 107.607 115.026 107.061C110.285 104.413 105.634 100.921 101.357 96.6445C97.0806 92.368 93.5891 87.7177 90.9411 82.9775Z" fill="url(#paint0_linear_2_675)"/>
<path d="M118.109 106.865L115.123 102.745L118.109 106.865ZM115.026 107.061L112.544 111.504L112.544 111.504L115.026 107.061ZM161.714 39.0801L166.788 39.4676L161.714 39.0801ZM90.9411 82.9775L95.3834 80.4959L90.9411 82.9775ZM95.2574 82.8805C99.8202 76.5871 105.423 70.0074 111.872 63.5586L104.676 56.3625C97.8738 63.1648 91.9167 70.1506 87.0182 76.907L95.2574 82.8805ZM111.872 63.5586C130.245 45.1857 151.886 41.9293 159.31 41.3622L158.535 31.215C149.928 31.8724 125.481 35.558 104.676 56.3625L111.872 63.5586ZM156.64 38.6925C156.073 46.1167 152.817 67.7575 134.444 86.1304L141.64 93.3265C162.445 72.5221 166.13 48.0748 166.788 39.4676L156.64 38.6925ZM134.444 86.1304C127.995 92.5791 121.416 98.1822 115.123 102.745L121.096 110.984C127.852 106.086 134.838 100.129 141.64 93.3265L134.444 86.1304ZM117.507 102.619C113.187 100.206 108.91 97.0015 104.955 93.0464L97.7591 100.243C102.358 104.841 107.382 108.62 112.544 111.504L117.507 102.619ZM104.955 93.0464C101.001 89.0918 97.7962 84.8151 95.3834 80.4959L86.4989 85.459C89.382 90.6202 93.1607 95.6442 97.7591 100.243L104.955 93.0464ZM115.123 102.745C115.776 102.271 116.706 102.171 117.507 102.619L112.544 111.504C115.299 113.042 118.631 112.771 121.096 110.984L115.123 102.745ZM159.31 41.3622C158.635 41.4138 157.91 41.1614 157.376 40.6269C156.841 40.0924 156.589 39.3675 156.64 38.6925L166.788 39.4676C167.149 34.7345 163.268 30.8534 158.535 31.215L159.31 41.3622ZM87.0182 76.907C85.2309 79.3722 84.96 82.7044 86.4989 85.459L95.3834 80.4959C95.831 81.2972 95.7315 82.2267 95.2574 82.8805L87.0182 76.907Z" fill="url(#paint1_linear_2_675)" mask="url(#path-12-outside-1_2_675)"/>
<circle cx="92.6861" cy="109.341" r="83.6861" fill="url(#paint2_linear_2_675)"/>
<path fill-rule="evenodd" clip-rule="evenodd" d="M81.3584 117.119C81.9304 116.004 81.8604 114.543 80.7665 113.931C78.5296 112.68 75.9436 111.996 73.1599 111.893C69.5588 111.766 65.3964 113.044 62.1697 115.866C60.5715 117.253 59.2152 118.929 58.2006 120.705C57.1909 122.472 56.444 124.33 55.9252 126.159C55.6679 127.076 55.4793 127.985 55.2963 128.896L54.9325 131.449L54.4369 135.507C54.401 135.812 54.3656 136.119 54.33 136.429L54.3299 136.43C53.7579 141.405 53.1258 146.902 49.298 150.698C46.1865 153.784 43.8742 154.514 41.5207 155.256V155.256C40.6026 155.545 40.4007 156.696 41.1878 157.25C43.2178 158.68 45.43 159.776 47.8185 160.608C50.8889 161.629 54.3148 162.197 58.0248 161.729C61.7079 161.314 65.6709 159.64 68.7264 156.95C71.8071 154.281 73.9228 150.921 75.3103 147.647C76.6934 144.35 77.4552 141.064 77.8552 137.875C77.9652 136.994 78.0126 136.509 78.0718 135.836L78.2063 133.925C78.2837 133.31 78.3293 132.674 78.3748 132.04L78.3748 132.039L78.3748 132.039C78.4199 131.412 78.4648 130.785 78.5402 130.183L78.5759 129.802C78.796 127.442 79.0151 125.095 79.4862 122.768C79.7324 121.528 80.0387 120.3 80.5 119.024C80.7347 118.396 81.0101 117.755 81.3584 117.119V117.119Z" fill="#FAFAFA"/>
<path fill-rule="evenodd" clip-rule="evenodd" d="M89.8842 72.6382C89.0393 73.7241 87.5772 74.1053 86.2748 73.6619C82.6451 72.4262 78.659 71.7981 74.2888 72.0058C71.5046 72.1382 69.433 68.9583 71.2725 66.8641C78.161 59.0217 89.0187 50.3501 103.03 51.4405C105.395 51.6245 106.16 54.4917 104.483 56.1687V56.1687C99.0417 61.6098 94.1389 67.1697 89.8842 72.6382ZM125.403 108.087C124.315 108.934 123.935 110.401 124.384 111.706C125.642 115.362 126.284 119.381 126.074 123.791C125.942 126.575 129.122 128.647 131.216 126.808C139.077 119.903 147.77 109.01 146.632 94.9512C146.438 92.5679 143.524 91.8283 141.833 93.519V93.519C136.405 98.9469 130.859 103.839 125.403 108.087Z" fill="#FAFAFA"/>
<path fill-rule="evenodd" clip-rule="evenodd" d="M90.9421 82.9777C90.3965 82.001 90.4821 80.7997 91.1388 79.894C95.8694 73.3691 101.65 66.5863 108.275 59.9608C127.864 40.3721 150.908 36.9011 158.924 36.2888C160.547 36.1648 161.839 37.4564 161.715 39.0803C161.103 47.096 157.632 70.14 138.043 89.7287C131.418 96.3541 124.635 102.134 118.11 106.865C117.205 107.521 116.003 107.607 115.027 107.062C110.286 104.413 105.635 100.922 101.358 96.6448C97.0816 92.3683 93.5901 87.7179 90.9421 82.9777ZM83.021 99.0461C82.4658 98.2509 82.3544 97.2287 82.7273 96.3334C83.3332 94.8786 84.0267 93.3756 84.8041 91.8322C85.8456 89.7645 88.7584 89.7565 90.0764 91.66C92.1955 94.7204 94.672 97.6998 97.4891 100.517C100.306 103.334 103.285 105.81 106.346 107.929C108.249 109.247 108.241 112.16 106.174 113.202C104.63 113.979 103.128 114.672 101.673 115.278C100.778 115.651 99.7555 115.54 98.9604 114.985C95.968 112.896 93.0549 110.464 90.2972 107.707C87.5404 104.95 85.1097 102.038 83.021 99.0461ZM132.884 65.1199C135.997 68.2332 141.045 68.2332 144.158 65.1199C147.271 62.0066 147.271 56.959 144.158 53.8457C141.045 50.7324 135.997 50.7324 132.884 53.8457C129.771 56.959 129.771 62.0066 132.884 65.1199Z" fill="#FAFAFA"/>
<path fill-rule="evenodd" clip-rule="evenodd" d="M39.0213 94.7923L40.4037 90.5216C40.6847 89.653 41.3702 88.9771 42.242 88.7106L46.5336 87.3908C47.1276 87.2094 47.1324 86.3713 46.5432 86.1802L42.2709 84.7978C41.4039 84.5169 40.728 83.8313 40.4599 82.9595L39.1417 78.668C38.9603 78.0755 38.1222 78.0691 37.9311 78.6599L36.5488 82.9307C36.2678 83.7976 35.5823 84.4736 34.7105 84.7417L30.4189 86.0598C29.8249 86.2428 29.8184 87.0794 30.4092 87.2704L34.6815 88.6527C35.5485 88.9337 36.2245 89.6209 36.4926 90.4927L37.8108 94.7826C37.9922 95.3766 38.8302 95.3831 39.0213 94.7923Z" fill="#FAFAFA"/>
<path fill-rule="evenodd" clip-rule="evenodd" d="M120.405 169.96L121.787 165.69C122.068 164.821 122.754 164.145 123.626 163.879L127.917 162.559C128.511 162.378 128.516 161.539 127.927 161.348L123.655 159.966C122.788 159.685 122.112 159 121.844 158.128L120.525 153.836C120.344 153.244 119.506 153.237 119.315 153.828L117.933 158.099C117.652 158.966 116.966 159.642 116.094 159.91L111.803 161.228C111.209 161.411 111.202 162.248 111.793 162.439L116.065 163.821C116.932 164.102 117.608 164.789 117.876 165.661L119.195 169.951C119.376 170.545 120.214 170.551 120.405 169.96Z" fill="#FAFAFA"/>
<path fill-rule="evenodd" clip-rule="evenodd" d="M92.6855 142.9C92.6855 143.986 93.566 144.866 94.6514 144.866C95.737 144.866 96.6162 143.986 96.6162 142.9C96.6162 141.815 95.737 140.934 94.6514 140.934C93.566 140.934 92.6855 141.815 92.6855 142.9Z" fill="#FAFAFA"/>
<path fill-rule="evenodd" clip-rule="evenodd" d="M155.266 122.592C155.266 123.677 156.146 124.558 157.232 124.558C158.317 124.558 159.196 123.677 159.196 122.592C159.196 121.506 158.317 120.626 157.232 120.626C156.146 120.626 155.266 121.506 155.266 122.592Z" fill="#FAFAFA"/>
<path fill-rule="evenodd" clip-rule="evenodd" d="M75.4111 172.367C75.4111 173.453 76.2916 174.333 77.377 174.333C78.4626 174.333 79.3418 173.453 79.3418 172.367C79.3418 171.282 78.4626 170.401 77.377 170.401C76.2916 170.401 75.4111 171.282 75.4111 172.367Z" fill="#FAFAFA"/>
<path fill-rule="evenodd" clip-rule="evenodd" d="M60.2656 53.3476C60.2656 54.4332 61.1461 55.3135 62.2315 55.3135C63.3171 55.3135 64.1963 54.4332 64.1963 53.3476C64.1963 52.2622 63.3171 51.3817 62.2315 51.3817C61.1461 51.3817 60.2656 52.2622 60.2656 53.3476Z" fill="#FAFAFA"/>
<path fill-rule="evenodd" clip-rule="evenodd" d="M29.9697 132.603C29.9697 133.689 30.8502 134.569 31.9356 134.569C33.0212 134.569 33.9004 133.689 33.9004 132.603C33.9004 131.518 33.0212 130.637 31.9356 130.637C30.8502 130.637 29.9697 131.518 29.9697 132.603Z" fill="#FAFAFA"/>
<defs>
<linearGradient id="paint0_linear_2_675" x1="114.27" y1="113.501" x2="93.0259" y2="45.8769" gradientUnits="userSpaceOnUse">
<stop stop-color="#2F44B3"/>
<stop offset="1" stop-color="#EC796B"/>
</linearGradient>
<linearGradient id="paint1_linear_2_675" x1="201.29" y1="77.9613" x2="97.9051" y2="78.2201" gradientUnits="userSpaceOnUse">
<stop stop-color="#2F44B3"/>
<stop offset="1" stop-color="#EC796B"/>
</linearGradient>
<linearGradient id="paint2_linear_2_675" x1="176.372" y1="198.564" x2="24.455" y2="39.7777" gradientUnits="userSpaceOnUse">
<stop stop-color="#2F44B3"/>
<stop offset="1" stop-color="#EC796B"/>
</linearGradient>
</defs>
</svg>
